<?xml version="1.0" standalone="no"?>
<!DOCTYPE svg PUBLIC "-//W3C//DTD SVG 20010904//EN"
 "http://www.w3.org/TR/2001/REC-SVG-20010904/DTD/svg10.dtd">
<svg version="1.0" xmlns="http://www.w3.org/2000/svg"
 width="514.000000pt" height="485.000000pt" viewBox="0 0 514.000000 485.000000"
 preserveAspectRatio="xMidYMid meet">

<g transform="translate(0.000000,485.000000) scale(0.100000,-0.100000)"
fill="#FFD700" stroke="none">
<path d="M2123 4539 c-121 -9 -270 -37 -409 -77 -762 -221 -1252 -839 -1304
-1646 -20 -303 28 -611 146 -951 25 -71 51 -161 59 -199 36 -174 126 -243 660
-509 539 -268 1292 -582 1621 -676 463 -133 766 -94 870 112 14 27 75 136 136
241 131 229 217 402 260 528 29 84 32 104 33 214 0 107 2 125 20 144 18 19 21
43 28 223 9 222 4 912 -8 939 -3 9 -21 23 -39 32 -31 15 -34 20 -45 91 -28
173 -93 370 -174 530 -180 352 -432 604 -784 782 -243 122 -529 202 -806 223
-72 5 -139 9 -147 9 -8 -1 -61 -5 -117 -10z m536 -78 c322 -68 572 -180 811
-364 252 -195 471 -505 567 -807 38 -119 89 -348 79 -357 -2 -2 -25 0 -52 4
l-49 8 -17 85 c-10 47 -23 104 -29 128 l-12 42 -156 0 c-604 0 -1666 224
-2416 510 -167 63 -465 212 -465 232 0 21 30 17 66 -7 139 -95 539 -251 959
-374 669 -196 1443 -331 1891 -331 86 0 104 3 104 15 0 13 -22 15 -137 15
-517 0 -1333 157 -2092 401 -348 112 -741 286 -741 329 0 14 142 130 247 200
177 119 402 214 623 264 179 40 239 45 465 41 187 -3 226 -7 354 -34z m-1935
-932 c79 -57 237 -135 414 -204 83 -33 152 -64 152 -68 1 -35 -112 4 -355 123
-180 88 -285 152 -285 175 0 23 11 19 74 -26z m-32 -53 c94 -66 325 -176 536
-257 22 -8 22 -10 7 -39 -30 -57 -36 -124 -19 -211 15 -79 78 -269 110 -330
l16 -32 -26 7 c-38 9 -22 -21 20 -39 19 -8 34 -21 34 -30 0 -19 -7 -17 -110
20 -36 13 -105 38 -155 56 -320 113 -600 249 -639 311 -21 34 3 28 55 -11 67
-51 192 -116 325 -169 136 -55 416 -154 420 -149 14 13 -40 40 -161 82 -77 27
-158 56 -180 66 -193 84 -241 108 -320 154 -145 85 -140 79 -125 161 19 102
55 226 102 347 23 59 43 107 45 107 1 0 30 -20 65 -44z m815 -182 c-3 -3 -12
-4 -19 -1 -8 3 -5 6 6 6 11 1 17 -2 13 -5z m63 -14 c8 -5 11 -10 5 -10 -5 0
-17 5 -25 10 -8 5 -10 10 -5 10 6 0 17 -5 25 -10z m110 -46 l25 -15 -25 7
c-14 3 -29 10 -34 15 -16 14 6 10 34 -7z m55 -24 c4 -6 11 -7 17 -4 7 4 8 2 4
-4 -5 -9 -13 -9 -27 -2 -10 6 -19 13 -19 15 0 9 19 5 25 -5z m200 -72 c111
-36 180 -51 365 -78 79 -11 146 -23 149 -26 12 -12 -273 28 -374 52 -33 8 -73
17 -89 19 -39 6 -170 56 -174 67 -2 4 -15 8 -28 8 -14 0 -22 4 -19 10 4 6 20
4 43 -6 20 -9 78 -29 127 -46z m720 -118 c356 -34 523 -51 545 -55 14 -3 68
-7 120 -10 52 -2 169 -11 260 -19 91 -9 227 -21 303 -27 l137 -12 0 -33 c0
-26 -3 -32 -15 -28 -13 5 -13 9 -3 22 11 13 10 14 -8 4 -12 -7 -25 -7 -30 -2
-12 12 -411 59 -512 60 -18 0 -31 4 -28 8 3 5 -16 9 -42 9 -26 0 -72 3 -102 6
-30 2 -138 12 -240 21 -102 9 -223 21 -270 26 -47 6 -130 15 -185 21 -55 7
-107 16 -115 21 -10 5 1 7 30 3 25 -2 95 -9 155 -15z m1459 -137 c38 -2 74 -7
80 -13 17 -17 15 -1088 -2 -1118 -12 -21 -67 -62 -85 -62 -11 0 4 82 21 108
43 67 -5 185 -100 247 -35 22 -85 122 -99 200 -14 74 -5 270 15 342 7 29 22
69 32 90 l19 38 71 0 c83 0 104 12 104 61 0 42 -30 64 -87 64 -24 0 -43 3 -43
8 0 4 -3 18 -6 32 -3 14 -2 21 3 15 4 -5 39 -11 77 -12z m-3614 -423 c178
-141 756 -349 1895 -681 581 -170 995 -268 1215 -289 233 -22 417 17 504 109
17 17 33 31 38 31 10 0 3 -143 -11 -200 -35 -151 -307 -674 -405 -779 -101
-109 -337 -130 -651 -57 -278 64 -821 263 -1238 455 -37 17 -69 31 -71 31 -2
0 -105 47 -228 104 -653 303 -841 420 -908 570 -76 169 -198 646 -165 646 4 0
31 -15 59 -34 72 -47 158 -89 304 -148 395 -158 1459 -487 2172 -672 554 -143
874 -160 1057 -55 29 17 51 34 48 39 -3 5 1 11 7 13 10 4 10 6 0 6 -7 1 -15
-6 -18 -14 -4 -8 -10 -12 -15 -9 -5 3 -9 0 -9 -7 0 -7 -3 -10 -6 -6 -3 3 -25
-3 -48 -13 -210 -90 -523 -60 -1161 112 -685 184 -1542 450 -1910 595 -302
118 -485 215 -498 262 -7 28 -2 27 43 -9z"/>
</g>
</svg>
